<?xml version="1.0" encoding="iso-8859-1"?>
<!-- Generator: Adobe Illustrator 18.0.0, SVG Export Plug-In . SVG Version: 6.00 Build 0)  -->
<!DOCTYPE svg PUBLIC "-//W3C//DTD SVG 1.1//EN" "http://www.w3.org/Graphics/SVG/1.1/DTD/svg11.dtd">
<svg version="1.1" id="Capa_1" xmlns="http://www.w3.org/2000/svg" xmlns:xlink="http://www.w3.org/1999/xlink" x="0px" y="0px"
	 viewBox="0 0 490 490" style="enable-background:new 0 0 490 490;" xml:space="preserve">
<g>
	<rect x="369.587" y="412.128" width="19.993" height="38"/>
	<rect x="409.574" y="0" width="19.426" height="401.309"/>
	<path d="M103.666,430.25c0-15.983,12.98-28.941,28.991-28.941H389.58V0H119.255C87.082,0,61,26.037,61,58.154v373.692
		C61,463.963,87.081,490,119.255,490H429v-30.809H132.657C116.646,459.191,103.666,446.233,103.666,430.25z M154.663,95.645
		c0-7.568,6.145-13.703,13.726-13.703h170.475c7.583,0,13.728,6.135,13.728,13.703v49.329c0,7.568-6.146,13.703-13.728,13.703
		H168.389c-7.58,0-13.726-6.135-13.726-13.703V95.645z"/>
</g>
<g>
</g>
<g>
</g>
<g>
</g>
<g>
</g>
<g>
</g>
<g>
</g>
<g>
</g>
<g>
</g>
<g>
</g>
<g>
</g>
<g>
</g>
<g>
</g>
<g>
</g>
<g>
</g>
<g>
</g>
</svg>
