<?xml version="1.0"?>
<svg width="24.000000000000004" height="24.000000000000004" xmlns="http://www.w3.org/2000/svg" xmlns:svg="http://www.w3.org/2000/svg">
 <g>
  <title>Layer 1</title>
  <g stroke="null" id="svg_1">
   <rect stroke="null" id="svg_2" height="1.85939" width="0.978284" y="20.165968" x="18.096206"/>
   <rect stroke="null" id="svg_3" height="19.63658" width="0.95054" y="0" x="20.052823"/>
   <path stroke="null" id="svg_4" d="m5.08434,21.052701c0,-0.782069 0.635129,-1.416121 1.418568,-1.416121l12.571582,0l0,-19.63658l-13.22736,0c-1.574267,0 -2.850494,1.274025 -2.850494,2.845552l0,18.285244c0,1.571527 1.276178,2.845552 2.850494,2.845552l15.156232,0l0,-1.507525l-14.500455,0c-0.783439,0 -1.418568,-0.634052 -1.418568,-1.416121zm2.495351,-16.372665c0,-0.370312 0.300683,-0.670506 0.671631,-0.670506l8.341567,0c0.371046,0 0.671729,0.300194 0.671729,0.670506l0,2.413733c0,0.370312 -0.300732,0.670506 -0.671729,0.670506l-8.341567,0c-0.370899,0 -0.671631,-0.300194 -0.671631,-0.670506l0,-2.413733z"/>
  </g>
  <g id="svg_5"/>
  <g id="svg_6"/>
  <g id="svg_7"/>
  <g id="svg_8"/>
  <g id="svg_9"/>
  <g id="svg_10"/>
  <g id="svg_11"/>
  <g id="svg_12"/>
  <g id="svg_13"/>
  <g id="svg_14"/>
  <g id="svg_15"/>
  <g id="svg_16"/>
  <g id="svg_17"/>
  <g id="svg_18"/>
  <g id="svg_19"/>
 </g>
</svg>