<?xml version="1.0"?>
<svg width="24" height="24" xmlns="http://www.w3.org/2000/svg" xmlns:svg="http://www.w3.org/2000/svg">
 <g>
  <title>Layer 1</title>
  <g stroke="null" id="svg_1">
   <g stroke="null" id="Layer_5_58_">
    <g stroke="null" id="svg_2">
     <g stroke="null" id="svg_3">
      <path stroke="null" id="svg_4" d="m17.403972,7.43863c-0.693,-0.277802 -0.893214,-0.44579 -0.893214,-0.749149c0,-0.242766 0.183872,-0.526385 0.702282,-0.526385c0.458536,0 0.8102,0.1808 0.813338,0.182369c0.036997,0.01974 0.078503,0.030264 0.119618,0.030264c0.100335,0 0.189101,-0.060724 0.225902,-0.154719l0.125958,-0.321988c0.04386,-0.11733 -0.022682,-0.219561 -0.107526,-0.256231c-0.282312,-0.122886 -0.834058,-0.217992 -0.83968,-0.218973c-0.00889,-0.001569 -0.039807,-0.008171 -0.039807,-0.044318l-0.001765,-0.467099c0,-0.140666 -0.117461,-0.255185 -0.261656,-0.255185l-0.225967,0c-0.144065,0 -0.26146,0.114454 -0.26146,0.255251l0.000588,0.491088c0,0.03765 -0.040788,0.053992 -0.055691,0.057456c-0.696465,0.165897 -1.131731,0.676071 -1.131731,1.31959c0,0.802225 0.663129,1.16474 1.379138,1.436855c0.572402,0.224725 0.805886,0.452588 0.805886,0.786799c0,0.363691 -0.330682,0.6177 -0.804448,0.6177c-0.404544,0 -0.952042,-0.256427 -0.957468,-0.259042c-0.035036,-0.016603 -0.072163,-0.024969 -0.110336,-0.024969c-0.104192,0 -0.194919,0.063012 -0.231196,0.160602l-0.120272,0.325649c-0.042749,0.121579 0.023074,0.22028 0.107329,0.264206c0.336238,0.175113 0.986882,0.277736 1.015839,0.282246c0.007778,0.001111 0.04739,0.015034 0.04739,0.051246l0,0.488931c0,0.140666 0.117461,0.255185 0.261722,0.255185l0.233484,0c0.144326,0 0.261787,-0.114454 0.261787,-0.255185l0,-0.514554c0,-0.048109 0.035493,-0.052357 0.042814,-0.054122c0.741959,-0.166681 1.198991,-0.709538 1.198991,-1.391165c-0.000196,-0.700125 -0.388988,-1.152517 -1.29985,-1.512352z"/>
      <path stroke="null" id="svg_5" d="m17.112248,1.779126c-3.386956,0 -6.13242,2.74566 -6.13242,6.13242c0,3.386826 2.745464,6.132551 6.13242,6.132551c3.386826,0 6.132354,-2.745725 6.132354,-6.132551c0,-3.38676 -2.745529,-6.13242 -6.132354,-6.13242zm0,10.843738c-2.602053,0 -4.711253,-2.109396 -4.711253,-4.711253s2.1092,-4.711187 4.711253,-4.711187c2.601922,0 4.711056,2.109331 4.711056,4.711187s-2.109135,4.711253 -4.711056,4.711253z"/>
     </g>
     <g stroke="null" id="svg_6">
      <path stroke="null" id="svg_7" d="m21.998548,17.015789c-1.304033,0.719735 -3.097585,1.385217 -4.886235,1.665763c-1.591378,0.249564 -4.585229,-0.352318 -4.585229,-1.063163c0,-0.269369 2.625715,0.663717 4.214021,0.239955c1.217947,-0.32493 1.045057,-1.464243 0.382582,-1.614517c-0.658618,-0.14949 -4.517249,-1.563075 -6.165429,-1.611837c-0.776406,-0.022943 -2.693237,0.270023 -3.620767,0.421082c-0.31774,0.051704 -0.516972,0.046017 -0.536843,0.350095c-0.092295,1.413193 -0.274206,4.303113 -0.373365,5.812654c-0.002092,0.031898 0.042226,0.460824 0.396178,0.158968c0.387419,-0.330355 0.930799,-0.69653 1.433391,-0.582533c0.788499,0.178904 7.610063,1.428619 8.550993,1.209907c1.346063,-0.312903 5.156519,-2.57107 5.887105,-3.27296c1.132384,-1.088132 0.252113,-2.236923 -0.696399,-1.713415z"/>
      <path stroke="null" id="svg_8" d="m4.918198,14.997969l-3.573639,-0.176093c-0.275906,-0.013596 -0.557695,0.19433 -0.626263,0.46187l-0.649794,5.899524c-0.068503,0.267605 0.101316,0.495336 0.377353,0.505991l3.960469,-0.000392c0.276102,0.010655 0.519129,-0.205965 0.540308,-0.481414l0.434939,-5.684015c0.021048,-0.275383 -0.187467,-0.511874 -0.463373,-0.52547zm-2.10384,5.909329c-0.545733,0 -0.988058,-0.442391 -0.988058,-0.988058c0,-0.545733 0.442391,-0.988058 0.988058,-0.988058s0.988058,0.442391 0.988058,0.988058c0,0.545733 -0.442325,0.988058 -0.988058,0.988058z"/>
     </g>
    </g>
   </g>
  </g>
  <g id="svg_9"/>
  <g id="svg_10"/>
  <g id="svg_11"/>
  <g id="svg_12"/>
  <g id="svg_13"/>
  <g id="svg_14"/>
  <g id="svg_15"/>
  <g id="svg_16"/>
  <g id="svg_17"/>
  <g id="svg_18"/>
  <g id="svg_19"/>
  <g id="svg_20"/>
  <g id="svg_21"/>
  <g id="svg_22"/>
  <g id="svg_23"/>
 </g>
</svg>